<mxfile host="app.diagrams.net" agent="Mozilla/5.0 (Windows NT 10.0; Win64; x64) AppleWebKit/537.36 (KHTML, like Gecko) Chrome/131.0.0.0 Safari/537.36 Edg/131.0.0.0" version="26.0.6">
  <diagram name="Page-1" id="7jxu0I7pEt7lMQIq_cQG">
    <mxGraphModel>
      <root>
        <mxCell id="0" />
        <mxCell id="1" parent="0" />
        <mxCell id="2" value="Iterative Process" style="whiteSpace=wrap;strokeWidth=2;" vertex="1" parent="1">
          <mxGeometry x="8" y="73" width="151" height="40" as="geometry" />
        </mxCell>
        <mxCell id="3" value="Other Input" style="whiteSpace=wrap;strokeWidth=2;" vertex="1" parent="1">
          <mxGeometry x="194" y="8" width="237" height="935" as="geometry" />
        </mxCell>
        <mxCell id="4" value="Processing" style="whiteSpace=wrap;strokeWidth=2;" vertex="1" parent="1">
          <mxGeometry x="228" y="1247" width="556" height="651" as="geometry" />
        </mxCell>
        <mxCell id="5" value="Input" style="whiteSpace=wrap;strokeWidth=2;" vertex="1" parent="1">
          <mxGeometry x="451" y="628" width="324" height="569" as="geometry" />
        </mxCell>
        <mxCell id="6" value="User Input" style="ellipse;aspect=fixed;strokeWidth=2;whiteSpace=wrap;" vertex="1" parent="1">
          <mxGeometry x="633" y="653" width="89" height="89" as="geometry" />
        </mxCell>
        <mxCell id="7" value="Data Extraction" style="ellipse;aspect=fixed;strokeWidth=2;whiteSpace=wrap;" vertex="1" parent="1">
          <mxGeometry x="614" y="791" width="127" height="127" as="geometry" />
        </mxCell>
        <mxCell id="8" value="Data Pre-processing" style="ellipse;aspect=fixed;strokeWidth=2;whiteSpace=wrap;" vertex="1" parent="1">
          <mxGeometry x="500" y="1015" width="156" height="156" as="geometry" />
        </mxCell>
        <mxCell id="9" value="Method 1" style="ellipse;aspect=fixed;strokeWidth=2;whiteSpace=wrap;" vertex="1" parent="1">
          <mxGeometry x="538" y="1272" width="81" height="81" as="geometry" />
        </mxCell>
        <mxCell id="10" value="Analysis" style="ellipse;aspect=fixed;strokeWidth=2;whiteSpace=wrap;" vertex="1" parent="1">
          <mxGeometry x="542" y="1425" width="72" height="72" as="geometry" />
        </mxCell>
        <mxCell id="11" value="Visualization" style="ellipse;aspect=fixed;strokeWidth=2;whiteSpace=wrap;" vertex="1" parent="1">
          <mxGeometry x="399" y="1547" width="106" height="106" as="geometry" />
        </mxCell>
        <mxCell id="12" value="Report Generation" style="ellipse;aspect=fixed;strokeWidth=2;whiteSpace=wrap;" vertex="1" parent="1">
          <mxGeometry x="435" y="1726" width="147" height="147" as="geometry" />
        </mxCell>
        <mxCell id="13" value="User Feedback" style="ellipse;aspect=fixed;strokeWidth=2;whiteSpace=wrap;" vertex="1" parent="1">
          <mxGeometry x="253" y="33" width="120" height="120" as="geometry" />
        </mxCell>
        <mxCell id="14" value="Data Refinement" style="ellipse;aspect=fixed;strokeWidth=2;whiteSpace=wrap;" vertex="1" parent="1">
          <mxGeometry x="245" y="203" width="135" height="135" as="geometry" />
        </mxCell>
        <mxCell id="15" value="Additional Processing" style="ellipse;aspect=fixed;strokeWidth=2;whiteSpace=wrap;" vertex="1" parent="1">
          <mxGeometry x="229" y="411" width="167" height="167" as="geometry" />
        </mxCell>
        <mxCell id="16" value="Validation" style="ellipse;aspect=fixed;strokeWidth=2;whiteSpace=wrap;" vertex="1" parent="1">
          <mxGeometry x="269" y="654" width="86" height="86" as="geometry" />
        </mxCell>
        <mxCell id="17" value="Optimization" style="ellipse;aspect=fixed;strokeWidth=2;whiteSpace=wrap;" vertex="1" parent="1">
          <mxGeometry x="259" y="801" width="108" height="108" as="geometry" />
        </mxCell>
        <mxCell id="18" value="" style="curved=1;startArrow=none;endArrow=block;exitX=0.5;exitY=0.99;entryX=0.5;entryY=0;" edge="1" parent="1" source="6" target="7">
          <mxGeometry relative="1" as="geometry">
            <Array as="points" />
          </mxGeometry>
        </mxCell>
        <mxCell id="19" value="Process" style="curved=1;startArrow=none;endArrow=block;exitX=0.18;exitY=1;entryX=0.69;entryY=0;" edge="1" parent="1" source="7" target="8">
          <mxGeometry relative="1" as="geometry">
            <Array as="points">
              <mxPoint x="620" y="943" />
              <mxPoint x="620" y="979" />
            </Array>
          </mxGeometry>
        </mxCell>
        <mxCell id="20" value="" style="curved=1;startArrow=none;endArrow=block;exitX=0.5;exitY=1.01;entryX=0.49;entryY=0;" edge="1" parent="1" source="8" target="9">
          <mxGeometry relative="1" as="geometry">
            <Array as="points" />
          </mxGeometry>
        </mxCell>
        <mxCell id="21" value="" style="curved=1;startArrow=none;endArrow=block;exitX=0.49;exitY=1;entryX=0.5;entryY=0.01;" edge="1" parent="1" source="9" target="10">
          <mxGeometry relative="1" as="geometry">
            <Array as="points" />
          </mxGeometry>
        </mxCell>
        <mxCell id="22" value="" style="curved=1;startArrow=none;endArrow=block;exitX=0.5;exitY=1;entryX=1;entryY=0.19;" edge="1" parent="1" source="10" target="11">
          <mxGeometry relative="1" as="geometry">
            <Array as="points">
              <mxPoint x="578" y="1522" />
            </Array>
          </mxGeometry>
        </mxCell>
        <mxCell id="23" value="Output" style="curved=1;startArrow=none;endArrow=block;exitX=0.5;exitY=1;entryX=0.24;entryY=0;" edge="1" parent="1" source="11" target="12">
          <mxGeometry relative="1" as="geometry">
            <Array as="points">
              <mxPoint x="452" y="1689" />
            </Array>
          </mxGeometry>
        </mxCell>
        <mxCell id="24" value="" style="curved=1;startArrow=none;endArrow=block;exitX=0.5;exitY=1;entryX=0.5;entryY=0;" edge="1" parent="1" source="13" target="14">
          <mxGeometry relative="1" as="geometry">
            <Array as="points" />
          </mxGeometry>
        </mxCell>
        <mxCell id="25" value="Process" style="curved=1;startArrow=none;endArrow=block;exitX=0.5;exitY=1;entryX=0.5;entryY=0;" edge="1" parent="1" source="14" target="15">
          <mxGeometry relative="1" as="geometry">
            <Array as="points" />
          </mxGeometry>
        </mxCell>
        <mxCell id="26" value="" style="curved=1;startArrow=none;endArrow=block;exitX=0.5;exitY=1;entryX=0.51;entryY=0;" edge="1" parent="1" source="15" target="16">
          <mxGeometry relative="1" as="geometry">
            <Array as="points" />
          </mxGeometry>
        </mxCell>
        <mxCell id="27" value="" style="curved=1;startArrow=none;endArrow=block;exitX=0.51;exitY=1;entryX=0.5;entryY=0;" edge="1" parent="1" source="16" target="17">
          <mxGeometry relative="1" as="geometry">
            <Array as="points" />
          </mxGeometry>
        </mxCell>
        <mxCell id="28" value="" style="curved=1;startArrow=none;endArrow=block;exitX=0.44;exitY=0.99;entryX=0;entryY=0.24;" edge="1" parent="1" source="17" target="11">
          <mxGeometry relative="1" as="geometry">
            <Array as="points">
              <mxPoint x="302" y="943" />
              <mxPoint x="302" y="1522" />
            </Array>
          </mxGeometry>
        </mxCell>
        <mxCell id="29" value="Feedback" style="curved=1;startArrow=none;endArrow=block;exitX=1;exitY=0.21;entryX=0.63;entryY=1;" edge="1" parent="1" source="12" target="7">
          <mxGeometry relative="1" as="geometry">
            <Array as="points">
              <mxPoint x="701" y="1689" />
              <mxPoint x="701" y="943" />
            </Array>
          </mxGeometry>
        </mxCell>
        <mxCell id="30" value="Feedback" style="curved=1;startArrow=none;endArrow=block;exitX=0.77;exitY=0.99;entryX=0.32;entryY=0;" edge="1" parent="1" source="17" target="8">
          <mxGeometry relative="1" as="geometry">
            <Array as="points">
              <mxPoint x="362" y="943" />
              <mxPoint x="536" y="979" />
            </Array>
          </mxGeometry>
        </mxCell>
      </root>
    </mxGraphModel>
  </diagram>
</mxfile>
